<svg width="3254" height="620" viewBox="0 0 3254 620" fill="none" xmlns="http://www.w3.org/2000/svg">
<rect x="898" y="48" width="512" height="512" rx="80" fill="url(#paint0_linear_1_2)"/>
<g filter="url(#filter0_iiii_1_2)">
<path d="M1026 349.5C1026 255.888 1101.89 180 1195.5 180V180C1289.11 180 1365 255.888 1365 349.5V391.875C1365 398.491 1365 401.798 1364.87 404.594C1361.98 466.471 1312.47 515.982 1250.59 518.87C1247.8 519 1244.49 519 1237.87 519H1195.5C1101.89 519 1026 443.112 1026 349.5V349.5Z" fill="#09101F"/>
<path d="M1026 349.5C1026 255.888 1101.89 180 1195.5 180V180C1289.11 180 1365 255.888 1365 349.5V391.875C1365 398.491 1365 401.798 1364.87 404.594C1361.98 466.471 1312.47 515.982 1250.59 518.87C1247.8 519 1244.49 519 1237.87 519H1195.5C1101.89 519 1026 443.112 1026 349.5V349.5Z" fill="#0A0909" fill-opacity="0.2"/>
</g>
<g filter="url(#filter1_iiii_1_2)">
<path d="M947 183.667C947 138.011 984.011 101 1029.67 101H1071C1139.48 101 1195 156.517 1195 225V225C1195 293.483 1139.48 349 1071 349V349C1002.52 349 947 293.483 947 225V183.667Z" fill="#09101F"/>
<path d="M947 183.667C947 138.011 984.011 101 1029.67 101H1071C1139.48 101 1195 156.517 1195 225V225C1195 293.483 1139.48 349 1071 349V349C1002.52 349 947 293.483 947 225V183.667Z" fill="#0A0909" fill-opacity="0.2"/>
</g>
<path d="M1673.89 193.273V426H1631.39L1530.14 279.523H1528.43V426H1479.23V193.273H1522.41L1622.86 339.636H1624.91V193.273H1673.89ZM1792.49 429.409C1774.84 429.409 1759.58 425.659 1746.7 418.159C1733.9 410.583 1724.01 400.053 1717.04 386.568C1710.07 373.008 1706.59 357.288 1706.59 339.409C1706.59 321.379 1710.07 305.621 1717.04 292.136C1724.01 278.576 1733.9 268.045 1746.7 260.545C1759.58 252.97 1774.84 249.182 1792.49 249.182C1810.15 249.182 1825.37 252.97 1838.18 260.545C1851.05 268.045 1860.98 278.576 1867.95 292.136C1874.92 305.621 1878.4 321.379 1878.4 339.409C1878.4 357.288 1874.92 373.008 1867.95 386.568C1860.98 400.053 1851.05 410.583 1838.18 418.159C1825.37 425.659 1810.15 429.409 1792.49 429.409ZM1792.72 391.909C1800.75 391.909 1807.46 389.636 1812.84 385.091C1818.21 380.47 1822.27 374.182 1824.99 366.227C1827.8 358.273 1829.2 349.22 1829.2 339.068C1829.2 328.917 1827.8 319.864 1824.99 311.909C1822.27 303.955 1818.21 297.667 1812.84 293.045C1807.46 288.424 1800.75 286.114 1792.72 286.114C1784.62 286.114 1777.8 288.424 1772.27 293.045C1766.81 297.667 1762.68 303.955 1759.88 311.909C1757.15 319.864 1755.79 328.917 1755.79 339.068C1755.79 349.22 1757.15 358.273 1759.88 366.227C1762.68 374.182 1766.81 380.47 1772.27 385.091C1777.8 389.636 1784.62 391.909 1792.72 391.909ZM1989.43 429.409C1971.47 429.409 1956.02 425.773 1943.06 418.5C1930.18 411.152 1920.26 400.773 1913.29 387.364C1906.32 373.879 1902.84 357.932 1902.84 339.523C1902.84 321.568 1906.32 305.811 1913.29 292.25C1920.26 278.689 1930.07 268.121 1942.72 260.545C1955.45 252.97 1970.37 249.182 1987.49 249.182C1999.01 249.182 2009.73 251.038 2019.65 254.75C2029.65 258.386 2038.37 263.879 2045.79 271.227C2053.29 278.576 2059.12 287.818 2063.29 298.955C2067.46 310.015 2069.54 322.97 2069.54 337.818V351.114H1922.15V321.114H2023.97C2023.97 314.144 2022.46 307.97 2019.43 302.591C2016.4 297.212 2012.19 293.008 2006.81 289.977C2001.51 286.871 1995.34 285.318 1988.29 285.318C1980.94 285.318 1974.43 287.023 1968.74 290.432C1963.14 293.765 1958.74 298.273 1955.56 303.955C1952.38 309.561 1950.75 315.811 1950.68 322.705V351.227C1950.68 359.864 1952.27 367.326 1955.45 373.614C1958.71 379.902 1963.29 384.75 1969.2 388.159C1975.11 391.568 1982.12 393.273 1990.22 393.273C1995.6 393.273 2000.52 392.515 2004.99 391C2009.46 389.485 2013.29 387.212 2016.47 384.182C2019.65 381.152 2022.08 377.439 2023.74 373.045L2068.52 376C2066.24 386.758 2061.59 396.152 2054.54 404.182C2047.57 412.136 2038.55 418.348 2027.49 422.818C2016.51 427.212 2003.82 429.409 1989.43 429.409ZM2193.97 251.455V287.818H2088.86V251.455H2193.97ZM2112.72 209.636H2161.13V372.364C2161.13 376.833 2161.81 380.318 2163.18 382.818C2164.54 385.242 2166.43 386.947 2168.86 387.932C2171.36 388.917 2174.24 389.409 2177.49 389.409C2179.77 389.409 2182.04 389.22 2184.31 388.841C2186.59 388.386 2188.33 388.045 2189.54 387.818L2197.15 423.841C2194.73 424.598 2191.32 425.47 2186.93 426.455C2182.53 427.515 2177.19 428.159 2170.9 428.386C2159.24 428.841 2149.01 427.288 2140.22 423.727C2131.51 420.167 2124.73 414.636 2119.88 407.136C2115.03 399.636 2112.65 390.167 2112.72 378.727V209.636ZM2225.51 426V251.455H2273.91V426H2225.51ZM2249.82 228.955C2242.63 228.955 2236.45 226.568 2231.3 221.795C2226.23 216.947 2223.69 211.152 2223.69 204.409C2223.69 197.742 2226.23 192.023 2231.3 187.25C2236.45 182.402 2242.63 179.977 2249.82 179.977C2257.02 179.977 2263.16 182.402 2268.23 187.25C2273.38 192.023 2275.96 197.742 2275.96 204.409C2275.96 211.152 2273.38 216.947 2268.23 221.795C2263.16 226.568 2257.02 228.955 2249.82 228.955ZM2428.03 491.455V398.045H2426.56C2424.28 402.894 2421.06 407.705 2416.9 412.477C2412.81 417.174 2407.47 421.076 2400.88 424.182C2394.36 427.288 2386.41 428.841 2377.01 428.841C2363.75 428.841 2351.75 425.432 2340.99 418.614C2330.31 411.72 2321.82 401.606 2315.53 388.273C2309.32 374.864 2306.22 358.424 2306.22 338.955C2306.22 318.955 2309.44 302.326 2315.88 289.068C2322.31 275.735 2330.88 265.773 2341.56 259.182C2352.31 252.515 2364.09 249.182 2376.9 249.182C2386.67 249.182 2394.81 250.848 2401.33 254.182C2407.92 257.439 2413.22 261.53 2417.24 266.455C2421.33 271.303 2424.44 276.076 2426.56 280.773H2428.6V251.455H2476.33V491.455H2428.03ZM2392.35 390.318C2400.16 390.318 2406.75 388.197 2412.12 383.955C2417.58 379.636 2421.75 373.614 2424.62 365.886C2427.58 358.159 2429.06 349.106 2429.06 338.727C2429.06 328.348 2427.62 319.333 2424.74 311.682C2421.86 304.03 2417.69 298.121 2412.24 293.955C2406.78 289.788 2400.16 287.705 2392.35 287.705C2384.4 287.705 2377.69 289.864 2372.24 294.182C2366.78 298.5 2362.66 304.485 2359.85 312.136C2357.05 319.788 2355.65 328.652 2355.65 338.727C2355.65 348.879 2357.05 357.856 2359.85 365.659C2362.73 373.386 2366.86 379.447 2372.24 383.841C2377.69 388.159 2384.4 390.318 2392.35 390.318Z" fill="#F2F2F2"/>
<defs>
<filter id="filter0_iiii_1_2" x="1026" y="150" width="339" height="373" filterUnits="userSpaceOnUse" color-interpolation-filters="sRGB">
<feFlood flood-opacity="0" result="BackgroundImageFix"/>
<feBlend mode="normal" in="SourceGraphic" in2="BackgroundImageFix" result="shape"/>
<feColorMatrix in="SourceAlpha" type="matrix" values="0 0 0 0 0 0 0 0 0 0 0 0 0 0 0 0 0 0 127 0" result="hardAlpha"/>
<feMorphology radius="30" operator="dilate" in="SourceAlpha" result="effect1_innerShadow_1_2"/>
<feOffset dy="-80"/>
<feGaussianBlur stdDeviation="30"/>
<feComposite in2="hardAlpha" operator="arithmetic" k2="-1" k3="1"/>
<feColorMatrix type="matrix" values="0 0 0 0 0.0784314 0 0 0 0 0.298039 0 0 0 0 0.803922 0 0 0 1 0"/>
<feBlend mode="normal" in2="shape" result="effect1_innerShadow_1_2"/>
<feColorMatrix in="SourceAlpha" type="matrix" values="0 0 0 0 0 0 0 0 0 0 0 0 0 0 0 0 0 0 127 0" result="hardAlpha"/>
<feMorphology radius="8" operator="dilate" in="SourceAlpha" result="effect2_innerShadow_1_2"/>
<feOffset dy="-40"/>
<feGaussianBlur stdDeviation="15"/>
<feComposite in2="hardAlpha" operator="arithmetic" k2="-1" k3="1"/>
<feColorMatrix type="matrix" values="0 0 0 0 0.4 0 0 0 0 0.580392 0 0 0 0 1 0 0 0 1 0"/>
<feBlend mode="normal" in2="effect1_innerShadow_1_2" result="effect2_innerShadow_1_2"/>
<feColorMatrix in="SourceAlpha" type="matrix" values="0 0 0 0 0 0 0 0 0 0 0 0 0 0 0 0 0 0 127 0" result="hardAlpha"/>
<feMorphology radius="6" operator="dilate" in="SourceAlpha" result="effect3_innerShadow_1_2"/>
<feOffset dy="-20"/>
<feGaussianBlur stdDeviation="10"/>
<feComposite in2="hardAlpha" operator="arithmetic" k2="-1" k3="1"/>
<feColorMatrix type="matrix" values="0 0 0 0 1 0 0 0 0 1 0 0 0 0 1 0 0 0 1 0"/>
<feBlend mode="normal" in2="effect2_innerShadow_1_2" result="effect3_innerShadow_1_2"/>
<feColorMatrix in="SourceAlpha" type="matrix" values="0 0 0 0 0 0 0 0 0 0 0 0 0 0 0 0 0 0 127 0" result="hardAlpha"/>
<feMorphology radius="2" operator="dilate" in="SourceAlpha" result="effect4_innerShadow_1_2"/>
<feOffset dy="6"/>
<feGaussianBlur stdDeviation="3"/>
<feComposite in2="hardAlpha" operator="arithmetic" k2="-1" k3="1"/>
<feColorMatrix type="matrix" values="0 0 0 0 0.137255 0 0 0 0 0.396078 0 0 0 0 1 0 0 0 1 0"/>
<feBlend mode="normal" in2="effect3_innerShadow_1_2" result="effect4_innerShadow_1_2"/>
</filter>
<filter id="filter1_iiii_1_2" x="947" y="71" width="248" height="282" filterUnits="userSpaceOnUse" color-interpolation-filters="sRGB">
<feFlood flood-opacity="0" result="BackgroundImageFix"/>
<feBlend mode="normal" in="SourceGraphic" in2="BackgroundImageFix" result="shape"/>
<feColorMatrix in="SourceAlpha" type="matrix" values="0 0 0 0 0 0 0 0 0 0 0 0 0 0 0 0 0 0 127 0" result="hardAlpha"/>
<feMorphology radius="30" operator="dilate" in="SourceAlpha" result="effect1_innerShadow_1_2"/>
<feOffset dy="-80"/>
<feGaussianBlur stdDeviation="30"/>
<feComposite in2="hardAlpha" operator="arithmetic" k2="-1" k3="1"/>
<feColorMatrix type="matrix" values="0 0 0 0 0.0784314 0 0 0 0 0.298039 0 0 0 0 0.803922 0 0 0 1 0"/>
<feBlend mode="normal" in2="shape" result="effect1_innerShadow_1_2"/>
<feColorMatrix in="SourceAlpha" type="matrix" values="0 0 0 0 0 0 0 0 0 0 0 0 0 0 0 0 0 0 127 0" result="hardAlpha"/>
<feMorphology radius="8" operator="dilate" in="SourceAlpha" result="effect2_innerShadow_1_2"/>
<feOffset dy="-40"/>
<feGaussianBlur stdDeviation="15"/>
<feComposite in2="hardAlpha" operator="arithmetic" k2="-1" k3="1"/>
<feColorMatrix type="matrix" values="0 0 0 0 0.4 0 0 0 0 0.580392 0 0 0 0 1 0 0 0 1 0"/>
<feBlend mode="normal" in2="effect1_innerShadow_1_2" result="effect2_innerShadow_1_2"/>
<feColorMatrix in="SourceAlpha" type="matrix" values="0 0 0 0 0 0 0 0 0 0 0 0 0 0 0 0 0 0 127 0" result="hardAlpha"/>
<feMorphology radius="6" operator="dilate" in="SourceAlpha" result="effect3_innerShadow_1_2"/>
<feOffset dy="-20"/>
<feGaussianBlur stdDeviation="10"/>
<feComposite in2="hardAlpha" operator="arithmetic" k2="-1" k3="1"/>
<feColorMatrix type="matrix" values="0 0 0 0 1 0 0 0 0 1 0 0 0 0 1 0 0 0 1 0"/>
<feBlend mode="normal" in2="effect2_innerShadow_1_2" result="effect3_innerShadow_1_2"/>
<feColorMatrix in="SourceAlpha" type="matrix" values="0 0 0 0 0 0 0 0 0 0 0 0 0 0 0 0 0 0 127 0" result="hardAlpha"/>
<feMorphology radius="2" operator="dilate" in="SourceAlpha" result="effect4_innerShadow_1_2"/>
<feOffset dy="6"/>
<feGaussianBlur stdDeviation="3"/>
<feComposite in2="hardAlpha" operator="arithmetic" k2="-1" k3="1"/>
<feColorMatrix type="matrix" values="0 0 0 0 0.137255 0 0 0 0 0.396078 0 0 0 0 1 0 0 0 1 0"/>
<feBlend mode="normal" in2="effect3_innerShadow_1_2" result="effect4_innerShadow_1_2"/>
</filter>
<linearGradient id="paint0_linear_1_2" x1="1154" y1="48" x2="1154" y2="560" gradientUnits="userSpaceOnUse">
<stop/>
<stop offset="1" stop-color="#09101F"/>
</linearGradient>
</defs>
</svg>
